# xmcd
#
# Track frame offsets:
#	183
#	16050
#	30230
#	47490
#	60680
#	81208
#	95938
#	113278
#	126140
#	139558
#	153308
#
# Disc length: 2238 seconds
#
# Revision: 11
# Processed by: cddbd v1.5.2PL0 Copyright (c) Steve Scherf et al.
# Submitted via: audiograbber 1.83.01
#
DISCID=7b08bc0b
DTITLE=Dwight Yoakam - Buenas Noches From A Lonely Room
DYEAR=1988
DGENRE=Country
TTITLE0=I Got You
TTITLE1=One More Name
TTITLE2=What I Don't Know
TTITLE3=Home Of The Blues
TTITLE4=Buenas Noches From A Lonely Room (She Wore Red Dresses)
TTITLE5=I Hear You Knockin'
TTITLE6=I Sang Dixie
TTITLE7=Streets Of Bakersfield
TTITLE8=Floyd County
TTITLE9=Send Me The Pillow
TTITLE10=Hold On To God
EXTD=
EXTT0=
EXTT1=
EXTT2=
EXTT3=
EXTT4=
EXTT5=
EXTT6=
EXTT7=
EXTT8=
EXTT9=
EXTT10=
PLAYORDER=
